# xmcd CD database file
#
# Track frame offsets:
#	150
#	46937
#	78347
#	116707
#	166507
#
# Disc length: 2627 seconds
#
# Revision: 0
# Processed by: cddbd v1.5.2PL0 Copyright (c) Steve Scherf et al.
# Submitted via: CDex 1.51
#
DISCID=2f0a4105
DTITLE=Milt Jackson - Sunflower
DYEAR=1972
DGENRE=Jazz
TTITLE0=For Someone I Love
TTITLE1=What Are You Doing The Rest Of Your Life?
TTITLE2=People Make The World Go Round
TTITLE3=Sunflower
TTITLE4=SKJ
EXTD=YEAR: 1972
EXTT0=
EXTT1=
EXTT2=
EXTT3=
EXTT4=
PLAYORDER=
